name Walk3.mot
datacolumns 19
datarows 20
range 2.85500000 2.95000000
endheader

                time	   L_ground_force_vx	   L_ground_force_vy	   L_ground_force_vz	   L_ground_force_px	   L_ground_force_py	   L_ground_force_pz	   R_ground_force_vx	   R_ground_force_vy	   R_ground_force_vz	   R_ground_force_px	   R_ground_force_py	   R_ground_force_pz	   L_ground_torque_x	   L_ground_torque_y	   L_ground_torque_z	   R_ground_torque_x	   R_ground_torque_y	   R_ground_torque_z	
          2.85500000	         28.28153770	        669.88807013	         42.29088849	         -0.42282437	          0.00000000	         -0.05234093	         -0.01298546	          0.19171417	          0.02161399	          0.00005904	          0.00000000	          0.00006050	          0.00000000	          0.32000478	          0.00000000	          0.00000000	         -0.00658722	          0.00000000	
          2.86000000	         30.14587900	        676.87495087	         42.49535699	         -0.42099556	          0.00000000	         -0.05251733	         -0.02144890	          0.24896779	          0.02721128	          0.00007294	          0.00000000	          0.00007333	          0.00000000	          0.35023386	          0.00000000	          0.00000000	         -0.00782658	          0.00000000	
          2.86500000	         31.97119488	        683.88203487	         42.74567834	         -0.41907060	          0.00000000	         -0.05271792	         -0.03200137	          0.30754321	          0.03258366	          0.00008561	          0.00000000	          0.00008431	          0.00000000	          0.38838973	          0.00000000	          0.00000000	         -0.00879396	          0.00000000	
          2.87000000	         33.74288113	        690.84175316	         43.03406537	         -0.41704668	          0.00000000	         -0.05293965	         -0.04451001	          0.36095581	          0.03694277	          0.00009481	          0.00000000	          0.00009103	          0.00000000	          0.43308489	          0.00000000	          0.00000000	         -0.00921794	          0.00000000	
          2.87500000	         35.44581364	        697.69092750	         43.34932600	         -0.41492267	          0.00000000	         -0.05317762	         -0.05852639	          0.39973035	          0.03918419	          0.00009747	          0.00000000	          0.00009028	          0.00000000	          0.48275335	          0.00000000	          0.00000000	         -0.00874226	          0.00000000	
          2.88000000	         37.06657033	        704.36843544	         43.67695408	         -0.41270076	          0.00000000	         -0.05342785	         -0.07316530	          0.41089660	          0.03784691	          0.00008959	          0.00000000	          0.00007798	          0.00000000	          0.53583869	          0.00000000	          0.00000000	         -0.00692231	          0.00000000	
          2.88500000	         38.59510877	        710.81522862	         44.00075311	         -0.41038609	          0.00000000	         -0.05368675	         -0.08696959	          0.37763395	          0.03109400	          0.00006626	          0.00000000	          0.00004917	          0.00000000	          0.59087804	          0.00000000	          0.00000000	         -0.00323062	          0.00000000	
          2.89000000	         40.02573538	        716.97633045	         44.30414228	         -0.40798529	          0.00000000	         -0.05394972	         -0.09776992	          0.27919196	          0.01672888	          0.00002170	          0.00000000	         -0.00000180	          0.00000000	          0.64668296	          0.00000000	          0.00000000	          0.00292457	          0.00000000	
          2.89500000	         41.35738237	        722.80303471	         44.57065779	         -0.40550646	          0.00000000	         -0.05421325	         -0.10255397	          0.09125133	         -0.00773494	         -0.00005045	          0.00000000	         -0.00008108	          0.00000000	          0.70244358	          0.00000000	          0.00000000	          0.01216215	          0.00000000	
          2.90000000	         42.59378739	        728.25574194	         44.78481210	         -0.40296045	          0.00000000	         -0.05447452	         -0.09736632	         -0.21307334	         -0.04492939	         -0.00015675	          0.00000000	         -0.00019469	          0.00000000	          0.75763320	          0.00000000	          0.00000000	          0.02506712	          0.00000000	
          2.90500000	         43.74415466	        733.30692593	         44.93346817	         -0.40036083	          0.00000000	         -0.05473057	         -0.07726881	         -0.66135313	         -0.09738861	         -0.00030318	          0.00000000	         -0.00034785	          0.00000000	          0.81175129	          0.00000000	          0.00000000	          0.04209939	          0.00000000	
          2.91000000	         44.82284882	        737.94454624	         45.00820107	         -0.39772276	          0.00000000	         -0.05497884	         -0.03639974	         -1.27882812	         -0.16718169	         -0.00049412	          0.00000000	         -0.00054379	          0.00000000	          0.86415437	          0.00000000	          0.00000000	          0.06346713	          0.00000000	
          2.91500000	         45.84872752	        742.17374412	         45.00763035	         -0.39506226	          0.00000000	         -0.05521738	          0.03181976	         -2.08399068	         -0.25539741	         -0.00073094	          0.00000000	         -0.00078226	          0.00000000	          0.91444425	          0.00000000	          0.00000000	          0.08896026	          0.00000000	
          2.92000000	         46.84530427	        746.01200198	         44.93869301	         -0.39239559	          0.00000000	         -0.05544365	          0.13427559	         -3.08253027	         -0.36146155	         -0.00101008	          0.00000000	         -0.00105765	          0.00000000	          0.96277697	          0.00000000	          0.00000000	          0.11774244	          0.00000000	
          2.92500000	         47.83955377	        749.47879097	         44.81585794	         -0.38973963	          0.00000000	         -0.05565526	          0.27748319	         -4.25947010	         -0.48227745	         -0.00132080	          0.00000000	         -0.00135665	          0.00000000	          1.00957330	          0.00000000	          0.00000000	          0.14810384	          0.00000000	
          2.93000000	         48.85910577	        752.58722408	         44.65895727	         -0.38711135	          0.00000000	         -0.05585031	          0.46657675	         -5.56945392	         -0.61119696	         -0.00164243	          0.00000000	         -0.00165560	          0.00000000	          1.05518987	          0.00000000	          0.00000000	          0.17718342	          0.00000000	
          2.93500000	         49.92905910	        755.33594079	         44.48949494	         -0.38452623	          0.00000000	         -0.05602719	          0.70390339	         -6.92534606	         -0.73685368	         -0.00194142	          0.00000000	         -0.00191759	          0.00000000	          1.10007912	          0.00000000	          0.00000000	          0.20067784	          0.00000000	
          2.94000000	         51.07035583	        757.70299980	         44.32610573	         -0.38199701	          0.00000000	         -0.05618487	          0.98717468	         -8.18560711	         -0.84192548	         -0.00216822	          0.00000000	         -0.00208964	          0.00000000	          1.14478964	          0.00000000	          0.00000000	          0.21256535	          0.00000000	
          2.94500000	         52.29989036	        759.64644704	         44.18086724	         -0.37953341	          0.00000000	         -0.05632221	          1.30715583	         -9.14131741	         -0.90193925	         -0.00225450	          0.00000000	         -0.00210022	          0.00000000	          1.18946268	          0.00000000	          0.00000000	          0.20488722	          0.00000000	
          2.95000000	         53.63121242	        761.11318509	         44.05750929	         -0.37714329	          0.00000000	         -0.05643779	          1.64491892	         -9.50425154	         -0.88428907	         -0.00211099	          0.00000000	         -0.00185770	          0.00000000	          1.23343474	          0.00000000	          0.00000000	          0.16764575	          0.00000000	
